<svg width="39" height="59" viewBox="0 0 39 59" fill="none" xmlns="http://www.w3.org/2000/svg">
<path d="M17.7045 58.8182V0.63636H21.4318V58.8182H17.7045ZM26.6818 20.4091C26.5303 18.7424 25.8561 17.447 24.6591 16.5227C23.4773 15.5833 21.7879 15.1136 19.5909 15.1136C18.1364 15.1136 16.9242 15.303 15.9545 15.6818C14.9848 16.0606 14.2576 16.5833 13.7727 17.25C13.2879 17.9015 13.0379 18.6515 13.0227 19.5C12.9924 20.197 13.1288 20.8106 13.4318 21.3409C13.75 21.8712 14.2045 22.3409 14.7955 22.75C15.4015 23.1439 16.1288 23.4924 16.9773 23.7955C17.8258 24.0985 18.7803 24.3636 19.8409 24.5909L23.8409 25.5C26.1439 26 28.1742 26.6667 29.9318 27.5C31.7045 28.3333 33.1894 29.3258 34.3864 30.4773C35.5985 31.6288 36.5152 32.9545 37.1364 34.4545C37.7576 35.9545 38.0758 37.6364 38.0909 39.5C38.0758 42.4394 37.3333 44.9621 35.8636 47.0682C34.3939 49.1742 32.2803 50.7879 29.5227 51.9091C26.7803 53.0303 23.4697 53.5909 19.5909 53.5909C15.697 53.5909 12.303 53.0076 9.40909 51.8409C6.51515 50.6742 4.26515 48.9015 2.65909 46.5227C1.05303 44.1439 0.227273 41.1364 0.181818 37.5H10.9545C11.0455 39 11.447 40.25 12.1591 41.25C12.8712 42.25 13.8485 43.0076 15.0909 43.5227C16.3485 44.0379 17.803 44.2955 19.4545 44.2955C20.9697 44.2955 22.2576 44.0909 23.3182 43.6818C24.3939 43.2727 25.2197 42.7045 25.7955 41.9773C26.3712 41.25 26.6667 40.4167 26.6818 39.4773C26.6667 38.5985 26.3939 37.8485 25.8636 37.2273C25.3333 36.5909 24.5152 36.0455 23.4091 35.5909C22.3182 35.1212 20.9242 34.6894 19.2273 34.2955L14.3636 33.1591C10.3333 32.2348 7.15909 30.7424 4.84091 28.6818C2.52273 26.6061 1.37121 23.803 1.38636 20.2727C1.37121 17.3939 2.14394 14.8712 3.70455 12.7045C5.26515 10.5379 7.42424 8.84848 10.1818 7.63636C12.9394 6.42424 16.0833 5.81818 19.6136 5.81818C23.2197 5.81818 26.3485 6.43182 29 7.65909C31.6667 8.87121 33.7348 10.5758 35.2045 12.7727C36.6742 14.9697 37.4242 17.5151 37.4545 20.4091H26.6818Z" fill="white"/>
</svg>
