<svg width="61" height="60" viewBox="0 0 61 60" fill="none" xmlns="http://www.w3.org/2000/svg">
<g clip-path="url(#clip0_380_71)">
<path d="M17.7934 37.5221C17.7842 37.4287 17.7549 37.3426 17.7549 37.2492V36.4491C17.7549 36.0682 17.8171 35.6929 17.9417 35.3358C17.9417 35.3358 19.9358 32.6662 20.8788 29.5295C19.846 27.3505 18.9085 24.6388 18.9085 21.9508C18.9085 21.3264 18.9543 20.7222 19.0184 20.127C17.6727 18.7171 15.8544 17.9187 13.8457 17.9187C9.69828 17.9187 6.33289 21.3025 6.33289 26.5613C6.33289 30.769 9.75699 35.3357 9.75699 35.3357C9.87781 35.6928 9.94016 36.0681 9.94016 36.449V37.2491C9.94016 38.2471 9.35785 39.1553 8.44965 39.571L3.0132 41.792C1.74969 42.3743 0.850626 43.5352 0.599845 44.9011L0.506447 46.0968C0.458868 46.7194 0.671212 47.3328 1.09602 47.7887C1.51895 48.2483 2.11414 48.5065 2.73852 48.5065H11.6246L11.9889 43.8245L12.0127 43.6982C12.4577 41.2428 14.08 39.1553 16.3468 38.1116L17.7934 37.5221Z" fill="black"/>
<path d="M60.4002 44.9011C60.1512 43.5352 59.2521 42.3742 57.9887 41.792L52.5486 39.571C51.6404 39.1553 51.0617 38.2471 51.0617 37.2491V36.449C51.0617 36.0681 51.1222 35.6928 51.2467 35.3357C51.2467 35.3357 54.6689 30.769 54.6689 26.5613C54.6689 21.3025 51.3053 17.9187 47.1506 17.9187C45.1456 17.9187 43.3274 18.7171 41.9778 20.1306C42.0438 20.7239 42.0895 21.3263 42.0895 21.9507C42.0895 24.6368 41.1539 27.3487 40.123 29.5275C41.0641 32.6642 43.0618 35.3357 43.0618 35.3357C43.1826 35.6928 43.2467 36.0681 43.2467 36.449V37.2491C43.2467 37.3425 43.2156 37.4285 43.2064 37.5219L44.5541 38.0713C46.9161 39.1517 48.5385 41.239 48.9889 43.6944L49.011 43.8226L49.3735 48.5065H58.2633C58.8876 48.5065 59.4827 48.2483 59.9039 47.7887C60.3287 47.3328 60.5412 46.7194 60.4935 46.0968L60.4002 44.9011Z" fill="black"/>
<path d="M43.6094 40.3839L37.0286 37.6941C35.93 37.1886 35.2287 36.09 35.2287 34.8852V33.9148C35.2287 33.457 35.302 33.0011 35.454 32.5671C35.454 32.5671 39.5922 27.0447 39.5922 21.9506C39.5922 15.5858 35.5218 11.4935 30.4992 11.4935C25.4784 11.4935 21.4061 15.586 21.4061 21.9506C21.4061 27.0447 25.548 32.5671 25.548 32.5671C25.6963 33.0011 25.7732 33.457 25.7732 33.9148V34.8852C25.7732 36.09 25.0665 37.1886 23.9696 37.6941L17.3888 40.3839C15.8599 41.0851 14.7704 42.4914 14.4701 44.1467L14.1313 48.5064H30.4992H46.867L46.5319 44.1467C46.2278 42.4915 45.1383 41.0853 43.6094 40.3839Z" fill="black"/>
</g>
<defs>
<clipPath id="clip0_380_71">
<rect width="60" height="60" fill="white" transform="translate(0.5)"/>
</clipPath>
</defs>
</svg>
